<?xml version="1.0" standalone="no"?>
<!DOCTYPE svg PUBLIC "-//W3C//DTD SVG 20010904//EN"
 "http://www.w3.org/TR/2001/REC-SVG-20010904/DTD/svg10.dtd">
<svg version="1.0" xmlns="http://www.w3.org/2000/svg"
 width="152.000000pt" height="137.000000pt" viewBox="0 0 152.000000 137.000000"
 preserveAspectRatio="xMidYMid meet">
<metadata>
Created by potrace 1.10, written by Peter Selinger 2001-2011
</metadata>
<g transform="translate(0.000000,137.000000) scale(0.100000,-0.100000)"
fill="#000000" stroke="none">
<path d="M708 1204 c-33 -17 -48 -43 -48 -81 0 -23 -8 -31 -40 -46 -41 -19
-100 -91 -100 -122 0 -9 -13 -21 -30 -26 -33 -12 -45 -38 -35 -76 6 -24 4 -23
-41 13 l-47 39 72 66 c39 36 71 68 71 71 0 3 -13 11 -29 18 -44 18 -112 -23
-236 -140 -58 -55 -126 -110 -152 -122 -55 -26 -64 -50 -33 -83 25 -27 125
-74 174 -82 29 -4 34 -2 44 23 6 16 13 49 15 73 3 24 9 47 14 51 4 5 74 -36
156 -91 119 -81 147 -104 147 -123 0 -17 -38 -59 -141 -157 -77 -73 -147 -145
-155 -160 -26 -50 4 -78 59 -55 35 14 167 117 206 160 14 14 28 26 32 26 12 0
38 -60 33 -74 -5 -14 16 -41 37 -48 8 -3 7 -13 -5 -35 -44 -87 3 -165 109
-178 73 -10 103 1 133 45 20 30 23 44 20 97 -3 44 -10 71 -26 92 -11 16 -24
42 -27 57 -4 16 -11 39 -17 51 -6 13 -9 25 -6 28 3 3 57 -35 119 -85 63 -50
125 -93 138 -97 30 -8 55 8 59 37 5 29 -22 57 -191 196 l-138 113 35 39 c34
37 38 39 88 35 65 -4 143 30 143 62 0 16 -8 21 -38 23 -21 2 -37 7 -35 12 4 9
97 110 103 110 15 0 66 -93 75 -136 6 -30 14 -55 18 -58 4 -2 29 3 56 11 66
20 147 100 165 164 19 69 14 79 -51 99 -77 24 -118 51 -173 116 l-48 55 -48
-47 c-27 -26 -56 -64 -65 -83 -14 -29 -92 -126 -95 -118 0 1 -2 38 -3 82 -3
124 -56 208 -161 256 -48 22 -71 23 -107 3z m138 -44 c43 -27 79 -74 99 -129
19 -54 20 -86 2 -57 -52 81 -127 126 -214 126 -46 0 -53 3 -53 19 0 34 12 53
43 66 35 15 70 7 123 -25z m-4 -112 c30 -17 51 -40 75 -83 18 -33 33 -63 33
-67 0 -5 -13 -8 -28 -8 -25 0 -30 6 -46 50 -18 50 -66 102 -106 115 -27 8 -27
8 -31 -35 -4 -33 -2 -35 26 -33 26 2 44 -10 45 -29 0 -5 -16 -8 -35 -8 -38 0
-40 -2 -25 -31 10 -17 7 -19 -22 -19 -18 0 -70 7 -115 16 -81 16 -81 17 -72
42 18 46 52 84 93 104 54 25 150 19 208 -14z m521 -116 c32 -12 64 -22 72 -22
18 0 19 -16 4 -61 -17 -50 -56 -97 -107 -130 -60 -38 -72 -37 -72 5 0 51 -14
81 -86 177 -35 47 -64 90 -64 95 0 4 16 25 36 46 l37 37 61 -63 c46 -47 75
-68 119 -84z m-893 110 c0 -5 -17 -18 -39 -30 -100 -56 -182 -186 -189 -298
-3 -35 -6 -64 -8 -64 -13 0 -141 63 -156 77 -27 24 -23 32 26 52 26 12 89 62
154 124 113 107 212 172 212 139z m631 -196 l-31 -31 -26 27 -27 26 24 30 24
29 33 -25 33 -25 -30 -31z m-592 43 c-10 -10 -19 -23 -19 -29 0 -5 -4 -10 -10
-10 -15 0 -12 37 5 54 9 8 22 13 30 10 11 -4 10 -9 -6 -25z m101 -14 c0 -23
-3 -25 -50 -25 -27 0 -50 4 -50 9 0 19 38 37 83 40 12 1 17 -6 17 -24z m89 -1
c10 -9 -20 -28 -44 -29 -20 0 -25 4 -25 23 0 21 3 23 33 17 17 -4 34 -9 36
-11z m-296 -25 c32 -26 36 -34 25 -46 -10 -13 -8 -19 11 -34 18 -15 40 -19 95
-19 l71 0 0 -65 c0 -36 -2 -64 -5 -62 -3 1 -67 44 -142 95 l-138 92 17 35 c9
19 19 35 23 35 3 0 22 -14 43 -31z m397 27 c0 -2 3 -11 6 -20 5 -13 -3 -15
-45 -13 -54 2 -59 5 -39 25 11 11 78 18 78 8z m76 -6 c22 0 23 -2 14 -20 -8
-16 -17 -19 -33 -14 -22 7 -37 22 -37 38 0 4 7 5 16 2 9 -3 27 -6 40 -6z m109
-64 c30 -64 25 -82 -7 -26 -10 17 -24 33 -33 35 -8 3 -22 7 -30 10 -13 4 -14
9 -5 25 20 37 43 23 75 -44z m45 19 c20 -21 21 -27 10 -40 -12 -15 -16 -13
-31 17 -30 55 -20 66 21 23z m-141 -15 c32 -8 56 -24 86 -55 29 -32 49 -45 68
-45 37 0 34 -16 -4 -29 -70 -24 -96 -16 -169 54 -87 85 -111 92 -205 60 -74
-26 -176 -33 -205 -15 -12 7 -11 12 5 31 20 21 24 21 200 16 99 -3 200 -11
224 -17z m-86 -38 c30 -27 47 -68 47 -114 0 -50 -18 -91 -42 -96 -14 -3 -14 1
0 44 19 58 8 109 -30 137 -73 54 -144 -53 -104 -158 5 -14 -2 -10 -23 13 -25
26 -31 41 -31 76 0 97 116 159 183 98z m-39 -38 c9 -3 16 -10 16 -15 0 -4 -6
-6 -14 -3 -8 3 -24 -4 -35 -15 -23 -23 -29 -88 -10 -123 14 -27 2 -36 -16 -12
-33 44 -31 118 5 154 21 21 29 23 54 14z m146 -66 c0 -4 -9 -12 -20 -18 -18
-10 -20 -8 -20 20 0 28 2 29 20 18 11 -7 20 -16 20 -20z m-130 -15 c0 -28 -12
-63 -20 -63 -11 0 -21 46 -14 64 8 22 34 20 34 -1z m60 -117 c0 -21 -54 -36
-126 -36 -58 0 -86 11 -69 28 4 4 43 10 88 13 45 3 88 6 95 7 6 1 12 -4 12
-12z m199 -143 c118 -99 132 -116 113 -135 -17 -17 -37 -5 -178 105 -87 68
-113 93 -117 117 -4 16 -4 37 -1 45 7 17 14 12 183 -132z m-411 69 c-1 -27
-14 -44 -71 -98 -133 -126 -227 -182 -227 -136 0 23 283 294 292 279 4 -7 7
-27 6 -45z m212 5 c0 -31 -167 -50 -190 -22 -16 20 -4 24 85 28 39 2 78 4 88
5 9 1 17 -4 17 -11z m0 -58 c0 -31 -171 -54 -198 -27 -23 23 -12 28 66 29 42
0 86 4 97 8 22 9 35 5 35 -10z m20 -49 c0 -6 -12 -15 -26 -20 -33 -13 -171
-13 -179 0 -4 6 19 10 62 11 37 0 77 4 88 9 28 12 55 12 55 0z m10 -50 c0 -28
-133 -50 -184 -31 -45 18 -20 30 69 34 44 1 88 4 98 5 9 1 17 -2 17 -8z m-93
-92 c-8 -58 11 -108 52 -135 l34 -23 -32 0 c-46 0 -68 15 -81 54 -11 35 -6 95
12 129 15 29 21 19 15 -25z m35 7 c-6 -52 5 -84 33 -95 33 -12 54 -3 61 26 9
34 26 30 18 -3 -9 -40 -32 -73 -50 -73 -45 0 -95 96 -80 155 10 37 23 30 18
-10z m83 4 c8 -25 -13 -61 -33 -57 -20 4 -28 53 -12 73 14 17 37 9 45 -16z
m-159 4 c-17 -43 -18 -102 -3 -132 20 -40 6 -40 -27 0 -31 37 -33 73 -6 117
21 33 47 45 36 15z"/>
<path d="M611 1014 c-30 -25 -39 -48 -23 -57 4 -3 29 15 57 39 47 42 48 44 23
44 -15 0 -40 -12 -57 -26z"/>
<path d="M1280 887 c0 -8 12 -24 26 -38 l26 -24 18 23 c11 13 16 30 13 37 -7
20 -83 21 -83 2z"/>
</g>
</svg>
